{"title":"G-Force[2009]DVDRip.XviD[Eng]-Bunkboyz","uid":5425424,"size":804302516,"categoryP":"video","categoryS":"movies","magnet":"?xt=urn:btih:5c728cb205d01cd3b72ce55cccba4925885040cf&amp;dn=G-Force%5B2009%5DDVDRip.XviD%5BEng%5D-Bunkboyz&amp;tr=udp%3A%2F%2Ftracker.openbittorrent.com%3A80&amp;tr=udp%3A%2F%2Fopen.demonii.com%3A1337&amp;tr=udp%3A%2F%2Ftracker.coppersurfer.tk%3A6969&amp;tr=udp%3A%2F%2Fexodus.desync.com%3A6969","seeders":0,"leechers":1,"uploader":"Bunkboyz","files":-1,"time":1268238987,"description":"BUNKBOYZ RELEASED\n=================\n\nGeneral\nComplete name                    : G-Force.avi\nFormat                           : AVI\nFormat/Info                      : Audio Video Interleave\nFile size                        : 767 MiB\nDuration                         : 1h 28mn\nOverall bit rate                 : 1 215 Kbps\nWriting application              : Lavf51.12.1\n\nVideo\nFormat                           : xvid\nCodec ID                         : xvid\nDuration                         : 1h 28mn\nBit rate                         : 1 074 Kbps\nWidth                            : 720 pixels\nHeight                           : 306 pixels\nDisplay aspect ratio             : 2.35:1\nFrame rate                       : 29.970 fps\nBits/(Pixel*Frame)               : 0.163\nStream size                      : 678 MiB (88%)\n\nAudio\nID                               : 1\nFormat                           : MPEG Audio\nFormat version                   : Version 1\nFormat profile                   : Layer 3\nFormat_Settings_Mode             : Joint stereo\nFormat_Settings_ModeExtension    : MS Stereo\nCodec ID                         : 55\nCodec ID/Hint                    : MP3\nDuration                         : 1h 28mn\nBit rate mode                    : Constant\nBit rate                         : 128 Kbps\nChannel(s)                       : 2 channels\nSampling rate                    : 44.1 KHz\nStream size                      : 80.8 MiB (11%)\nAlignment                        : Aligned on interleaves\nInterleave, duration             : 26 ms (0.78 video frame)\nWriting library                  : LAME3.97\n\n\nMovies Screenshots : &lt;a href=&quot;\nhttp://postimg.com/image/12000/11984.jpg&quot; rel=&quot;nofollow&quot; target=&quot;_NEW&quot;&gt;\nhttp://postimg.com/image/12000/11984.jpg&lt;/a&gt; &lt;a href=&quot;\nhttp://postimg.com/image/12000/11988.jpg&quot; rel=&quot;nofollow&quot; target=&quot;_NEW&quot;&gt;\nhttp://postimg.com/image/12000/11988.jpg&lt;/a&gt; &lt;a href=&quot;\nhttp://postimg.com/image/12000/11985.jpg&quot; rel=&quot;nofollow&quot; target=&quot;_NEW&quot;&gt;\nhttp://postimg.com/image/12000/11985.jpg&lt;/a&gt; &lt;a href=&quot;\nhttp://postimg.com/image/12000/11986.jpg&quot; rel=&quot;nofollow&quot; target=&quot;_NEW&quot;&gt;\nhttp://postimg.com/image/12000/11986.jpg&lt;/a&gt; &lt;a href=&quot;\nhttp://postimg.com/image/12000/11990.jpg&quot; rel=&quot;nofollow&quot; target=&quot;_NEW&quot;&gt;\nhttp://postimg.com/image/12000/11990.jpg&lt;/a&gt; &lt;a href=&quot;\nhttp://postimg.com/image/12000/11987.jpg&quot; rel=&quot;nofollow&quot; target=&quot;_NEW&quot;&gt;\nhttp://postimg.com/image/12000/11987.jpg&lt;/a&gt;\n\nMovies Thumbnail/Screencaps : &lt;a href=&quot;\nhttp://postimg.com/image/12000/11989.jpg&quot; rel=&quot;nofollow&quot; target=&quot;_NEW&quot;&gt;\nhttp://postimg.com/image/12000/11989.jpg&lt;/a&gt;","torrent":{"xt":"urn:btih:5c728cb205d01cd3b72ce55cccba4925885040cf","amp;dn":"G-Force%5B2009%5DDVDRip.XviD%5BEng%5D-Bunkboyz","amp;tr":["udp%3A%2F%2Ftracker.openbittorrent.com%3A80","udp%3A%2F%2Fopen.demonii.com%3A1337","udp%3A%2F%2Ftracker.coppersurfer.tk%3A6969","udp%3A%2F%2Fexodus.desync.com%3A6969"],"infoHash":"5c728cb205d01cd3b72ce55cccba4925885040cf","infoHashBuffer":{"type":"Buffer","data":[92,114,140,178,5,208,28,211,183,44,229,92,204,186,73,37,136,80,64,207]},"announce":[],"urlList":[]}}